<svg width="24" height="24" viewBox="0 0 24 24" fill="none" xmlns="http://www.w3.org/2000/svg">
<circle opacity="0.8" cx="12" cy="12" r="12" fill="#16171B"/>
<path d="M16.2778 10.2584C16.2778 9.1732 15.8271 8.13244 15.0248 7.36508C14.2226 6.59772 13.1345 6.16663 12 6.16663C10.8655 6.16663 9.77739 6.59772 8.97516 7.36508C8.17292 8.13244 7.72222 9.1732 7.72222 10.2584C7.72222 13.2836 6.629 14.9394 5.82813 15.7466C5.6424 15.9338 5.79337 16.3961 6.05706 16.3961H9.30454C9.42151 16.3961 9.52368 16.4769 9.56165 16.5875C9.7346 17.0915 10.3466 18.4166 12 18.4166C13.6534 18.4166 14.2654 17.0915 14.4384 16.5875C14.4763 16.4769 14.5785 16.3961 14.6955 16.3961H17.9429C18.2066 16.3961 18.3576 15.9338 18.1719 15.7466C17.371 14.9394 16.2778 13.2836 16.2778 10.2584Z" stroke="#EC8B00" stroke-linecap="round" stroke-linejoin="round"/>
</svg>
