<svg width="24" height="24" viewBox="0 0 24 24" fill="none" xmlns="http://www.w3.org/2000/svg">
<circle opacity="0.8" cx="12" cy="12" r="12" fill="#16171B"/>
<path d="M11.3078 6.3246C11.5645 5.70983 12.4354 5.70983 12.6921 6.3246L13.8739 9.15565C13.9765 9.40134 14.2016 9.57424 14.4654 9.60995L17.6209 10.037C18.271 10.125 18.5028 10.9465 17.9945 11.3613L15.5745 13.3361C15.353 13.5168 15.2535 13.8078 15.318 14.0863L16.0906 17.4252C16.2457 18.0953 15.4921 18.6033 14.9291 18.2081L12.4308 16.4547C12.1722 16.2732 11.8277 16.2732 11.5691 16.4547L9.07079 18.2082C8.50775 18.6033 7.75416 18.0954 7.90923 17.4252L8.68184 14.0862C8.74628 13.8077 8.64681 13.5168 8.42533 13.3361L6.00543 11.3613C5.4971 10.9465 5.72885 10.125 6.37902 10.037L9.5345 9.60995C9.79834 9.57424 10.0235 9.40134 10.126 9.15565L11.3078 6.3246Z" stroke="#EC8B00" stroke-miterlimit="3.3292" stroke-linecap="round" stroke-linejoin="round"/>
</svg>
